# This file uses centimeters as units for non-parametric coordinates.

mtllib bullet.mtl
g default
v 1.334801 0.350814 -0.202543
v 1.334801 0.202543 -0.350814
v 1.334801 -0.000000 -0.405085
v 1.334801 -0.202543 -0.350814
v 1.334801 -0.350814 -0.202543
v 1.334801 -0.405085 0.000000
v 1.334801 -0.350814 0.202543
v 1.334801 -0.202543 0.350814
v 1.334801 -0.000000 0.405085
v 1.334801 0.202543 0.350814
v 1.334801 0.350814 0.202543
v 1.334801 0.405085 0.000000
v -1.000000 0.534984 -0.308873
v -1.000000 0.308873 -0.534984
v -1.000000 0.000000 -0.617746
v -1.000000 -0.308873 -0.534984
v -1.000000 -0.534984 -0.308873
v -1.000000 -0.617746 0.000000
v -1.000000 -0.534984 0.308873
v -1.000000 -0.308873 0.534984
v -1.000000 0.000000 0.617746
v -1.000000 0.308873 0.534984
v -1.000000 0.534984 0.308873
v -1.000000 0.617746 0.000000
v 2.020013 -0.000000 0.000000
v -1.000000 0.000000 0.000000
v 0.816391 0.258695 0.448074
v 0.816391 -0.000000 0.517391
v 0.816391 -0.258695 0.448074
v 0.816391 -0.448074 0.258695
v 0.816391 -0.517391 0.000000
v 0.816391 -0.448074 -0.258695
v 0.816391 -0.258695 -0.448074
v 0.816391 -0.000000 -0.517391
v 0.816391 0.258695 -0.448074
v 0.816391 0.448074 -0.258695
v 0.816391 0.517391 0.000000
v 0.816391 0.448074 0.258695
v 0.080059 0.500538 0.288986
v 0.080059 0.288986 0.500538
v 0.080059 0.000000 0.577971
v 0.080059 -0.288986 0.500538
v 0.080059 -0.500538 0.288986
v 0.080059 -0.577971 0.000000
v 0.080059 -0.500538 -0.288986
v 0.080059 -0.288986 -0.500538
v 0.080059 0.000000 -0.577971
v 0.080059 0.288986 -0.500538
v 0.080059 0.500538 -0.288986
v 0.080059 0.577971 0.000000
vt 0.635316 0.078125
vt 0.578125 0.020934
vt 0.500000 0.000000
vt 0.421875 0.020934
vt 0.364684 0.078125
vt 0.343750 0.156250
vt 0.364684 0.234375
vt 0.421875 0.291566
vt 0.500000 0.312500
vt 0.578125 0.291566
vt 0.635316 0.234375
vt 0.656250 0.156250
vt 0.375000 0.312500
vt 0.395833 0.312500
vt 0.416667 0.312500
vt 0.437500 0.312500
vt 0.458333 0.312500
vt 0.479167 0.312500
vt 0.500000 0.312500
vt 0.520833 0.312500
vt 0.541667 0.312500
vt 0.562500 0.312500
vt 0.583333 0.312500
vt 0.604167 0.312500
vt 0.625000 0.312500
vt 0.375000 0.688440
vt 0.395833 0.688440
vt 0.416667 0.688440
vt 0.437500 0.688440
vt 0.458333 0.688440
vt 0.479167 0.688440
vt 0.500000 0.688440
vt 0.520833 0.688440
vt 0.541667 0.688440
vt 0.562500 0.688440
vt 0.583333 0.688440
vt 0.604167 0.688440
vt 0.625000 0.688440
vt 0.635316 0.765625
vt 0.578125 0.708434
vt 0.500000 0.687500
vt 0.421875 0.708434
vt 0.364684 0.765625
vt 0.343750 0.843750
vt 0.364684 0.921875
vt 0.421875 0.979066
vt 0.500000 1.000000
vt 0.578125 0.979066
vt 0.635316 0.921875
vt 0.656250 0.843750
vt 0.500000 0.150000
vt 0.500000 0.837500
vt 0.562500 0.395403
vt 0.541667 0.395403
vt 0.520833 0.395403
vt 0.500000 0.395403
vt 0.479167 0.395403
vt 0.458333 0.395403
vt 0.437500 0.395403
vt 0.416667 0.395403
vt 0.395833 0.395403
vt 0.625000 0.395403
vt 0.375000 0.395403
vt 0.604167 0.395403
vt 0.583333 0.395403
vt 0.583333 0.572222
vt 0.562500 0.572222
vt 0.541667 0.572222
vt 0.520833 0.572222
vt 0.500000 0.572222
vt 0.479167 0.572222
vt 0.458333 0.572222
vt 0.437500 0.572222
vt 0.416667 0.572222
vt 0.395833 0.572222
vt 0.625000 0.572222
vt 0.375000 0.572222
vt 0.604167 0.572222
vn 0.204817 0.692116 -0.692116
vn 0.204817 0.692116 -0.692116
vn 0.125308 0.701533 -0.701533
vn 0.125308 0.701533 -0.701533
vn 0.204817 0.253333 -0.945448
vn 0.204817 0.253333 -0.945448
vn 0.125308 0.256779 -0.958312
vn 0.125308 0.256779 -0.958312
vn 0.204817 -0.253333 -0.945448
vn 0.204817 -0.253333 -0.945448
vn 0.125308 -0.256779 -0.958312
vn 0.125308 -0.256779 -0.958312
vn 0.204817 -0.692116 -0.692116
vn 0.204817 -0.692116 -0.692116
vn 0.125308 -0.701533 -0.701533
vn 0.125308 -0.701533 -0.701533
vn 0.204817 -0.945448 -0.253333
vn 0.204817 -0.945448 -0.253333
vn 0.125308 -0.958312 -0.256779
vn 0.125308 -0.958312 -0.256779
vn 0.204817 -0.945448 0.253333
vn 0.204817 -0.945448 0.253333
vn 0.125308 -0.958312 0.256779
vn 0.125308 -0.958312 0.256779
vn 0.204817 -0.692116 0.692116
vn 0.204817 -0.692116 0.692116
vn 0.125308 -0.701533 0.701533
vn 0.125308 -0.701533 0.701533
vn 0.204817 -0.253333 0.945448
vn 0.204817 -0.253333 0.945448
vn 0.125308 -0.256779 0.958312
vn 0.125308 -0.256779 0.958312
vn 0.204817 0.253333 0.945448
vn 0.204817 0.253333 0.945448
vn 0.125308 0.256779 0.958312
vn 0.125308 0.256779 0.958312
vn 0.204817 0.692116 0.692116
vn 0.204817 0.692116 0.692116
vn 0.125308 0.701533 0.701533
vn 0.125308 0.701533 0.701533
vn 0.204817 0.945448 0.253333
vn 0.204817 0.945448 0.253333
vn 0.125308 0.958312 0.256779
vn 0.125308 0.958312 0.256779
vn 0.204817 0.945448 -0.253333
vn 0.204817 0.945448 -0.253333
vn 0.125308 0.958312 -0.256779
vn 0.125308 0.958312 -0.256779
vn 0.508903 0.430413 -0.745495
vn 0.508903 0.745495 -0.430412
vn 1.000000 0.000000 -0.000000
vn 0.508904 0.000000 -0.860824
vn 0.508903 -0.430412 -0.745495
vn 0.508903 -0.745495 -0.430412
vn 0.508904 -0.860823 0.000000
vn 0.508903 -0.745495 0.430412
vn 0.508903 -0.430413 0.745495
vn 0.508904 0.000000 0.860824
vn 0.508903 0.430412 0.745495
vn 0.508903 0.745495 0.430412
vn 0.508904 0.860823 0.000000
vn -1.000000 0.000000 0.000000
vn -1.000000 0.000000 0.000000
vn -1.000000 0.000000 0.000000
vn -1.000000 0.000000 0.000000
vn -1.000000 0.000000 0.000000
vn -1.000000 0.000000 0.000000
vn -1.000000 0.000000 0.000000
vn -1.000000 0.000000 0.000000
vn -1.000000 0.000000 0.000000
vn -1.000000 0.000000 0.000000
vn -1.000000 0.000000 0.000000
vn -1.000000 0.000000 0.000000
vn -1.000000 0.000000 0.000000
vn 0.052173 0.258466 0.964611
vn 0.052173 0.258466 0.964610
vn 0.052173 -0.258466 0.964610
vn 0.052173 -0.258466 0.964610
vn 0.052173 -0.706144 0.706144
vn 0.052173 -0.706144 0.706144
vn 0.052173 -0.964611 0.258466
vn 0.052173 -0.964611 0.258466
vn 0.052173 -0.964611 -0.258466
vn 0.052173 -0.964611 -0.258466
vn 0.052173 -0.706144 -0.706144
vn 0.052173 -0.706144 -0.706144
vn 0.052173 -0.258466 -0.964611
vn 0.052173 -0.258466 -0.964610
vn 0.052173 0.258466 -0.964610
vn 0.052173 0.258466 -0.964610
vn 0.052173 0.706144 -0.706144
vn 0.052173 0.706144 -0.706144
vn 0.052173 0.964611 -0.258466
vn 0.052173 0.964611 -0.258466
vn 0.052173 0.964611 0.258466
vn 0.052173 0.964611 0.258466
vn 0.052173 0.706144 0.706144
vn 0.052173 0.706144 0.706144
vn 0.035549 0.706660 0.706660
vn 0.035549 0.706660 0.706660
vn 0.035549 0.258655 0.965316
vn 0.035549 0.258655 0.965316
vn 0.035549 -0.258655 0.965315
vn 0.035549 -0.258655 0.965315
vn 0.035549 -0.706660 0.706660
vn 0.035549 -0.706660 0.706660
vn 0.035549 -0.965316 0.258655
vn 0.035549 -0.965316 0.258655
vn 0.035549 -0.965316 -0.258655
vn 0.035549 -0.965316 -0.258655
vn 0.035549 -0.706660 -0.706660
vn 0.035549 -0.706660 -0.706660
vn 0.035549 -0.258655 -0.965316
vn 0.035549 -0.258655 -0.965316
vn 0.035549 0.258655 -0.965315
vn 0.035549 0.258655 -0.965315
vn 0.035549 0.706660 -0.706660
vn 0.035549 0.706660 -0.706660
vn 0.035549 0.965316 -0.258655
vn 0.035549 0.965316 -0.258655
vn 0.035549 0.965316 0.258655
vn 0.035549 0.965316 0.258655
s 1
g pCylinder1
usemtl initialShadingGroup
f 1/13/1 2/14/2 35/61/3 36/63/4
s 2
f 2/14/5 3/15/6 34/60/7 35/61/8
s 3
f 3/15/9 4/16/10 33/59/11 34/60/12
s 4
f 4/16/13 5/17/14 32/58/15 33/59/16
s 5
f 5/17/17 6/18/18 31/57/19 32/58/20
s 6
f 6/18/21 7/19/22 30/56/23 31/57/24
s 7
f 7/19/25 8/20/26 29/55/27 30/56/28
s 8
f 8/20/29 9/21/30 28/54/31 29/55/32
s 9
f 9/21/33 10/22/34 27/53/35 28/54/36
s 10
f 10/22/37 11/23/38 38/65/39 27/53/40
s 11
f 11/23/41 12/24/42 37/64/43 38/65/44
s 12
f 12/24/45 1/25/46 36/62/47 37/64/48
s 13
f 2/2/49 1/1/50 25/51/51
f 3/3/52 2/2/49 25/51/51
f 4/4/53 3/3/52 25/51/51
f 5/5/54 4/4/53 25/51/51
f 6/6/55 5/5/54 25/51/51
f 7/7/56 6/6/55 25/51/51
f 8/8/57 7/7/56 25/51/51
f 9/9/58 8/8/57 25/51/51
f 10/10/59 9/9/58 25/51/51
f 11/11/60 10/10/59 25/51/51
f 12/12/61 11/11/60 25/51/51
f 1/1/50 12/12/61 25/51/51
s 14
f 13/49/62 14/48/63 26/52/64
f 14/48/63 15/47/65 26/52/64
f 15/47/65 16/46/66 26/52/64
f 16/46/66 17/45/67 26/52/64
f 17/45/67 18/44/68 26/52/64
f 18/44/68 19/43/69 26/52/64
f 19/43/69 20/42/70 26/52/64
f 20/42/70 21/41/71 26/52/64
f 21/41/71 22/40/72 26/52/64
f 22/40/72 23/39/73 26/52/64
f 23/39/73 24/50/74 26/52/64
f 24/50/74 13/49/62 26/52/64
s 9
f 28/54/36 27/53/35 40/67/75 41/68/76
s 8
f 29/55/32 28/54/31 41/68/77 42/69/78
s 7
f 30/56/28 29/55/27 42/69/79 43/70/80
s 6
f 31/57/24 30/56/23 43/70/81 44/71/82
s 5
f 32/58/20 31/57/19 44/71/83 45/72/84
s 4
f 33/59/16 32/58/15 45/72/85 46/73/86
s 3
f 34/60/12 33/59/11 46/73/87 47/74/88
s 2
f 35/61/8 34/60/7 47/74/89 48/75/90
s 1
f 36/63/4 35/61/3 48/75/91 49/77/92
s 12
f 37/64/48 36/62/47 49/76/93 50/78/94
s 11
f 38/65/44 37/64/43 50/78/95 39/66/96
s 10
f 27/53/40 38/65/39 39/66/97 40/67/98
f 40/67/98 39/66/97 23/36/99 22/35/100
s 9
f 41/68/76 40/67/75 22/35/101 21/34/102
s 8
f 42/69/78 41/68/77 21/34/103 20/33/104
s 7
f 43/70/80 42/69/79 20/33/105 19/32/106
s 6
f 44/71/82 43/70/81 19/32/107 18/31/108
s 5
f 45/72/84 44/71/83 18/31/109 17/30/110
s 4
f 46/73/86 45/72/85 17/30/111 16/29/112
s 3
f 47/74/88 46/73/87 16/29/113 15/28/114
s 2
f 48/75/90 47/74/89 15/28/115 14/27/116
s 1
f 49/77/92 48/75/91 14/27/117 13/26/118
s 12
f 50/78/94 49/76/93 13/38/119 24/37/120
s 11
f 39/66/96 50/78/95 24/37/121 23/36/122
